<svg xmlns="http://www.w3.org/2000/svg" width="22" height="16" viewBox="0 0 22 16">
    <g fill="none" fill-rule="evenodd">
        <path d="M0 0H24V24H0z" transform="translate(-1 -4.3)"/>
        <path fill="#E30A0A" fill-rule="nonzero" d="M3.5 4.8c.276.001.5.225.5.5v8.5h16.001L20 9.3c0-.245.177-.45.41-.492l.09-.008h2c.276 0 .5.225.5.5v10c0 .276-.224.5-.5.5h-1.997c-.277 0-.5-.224-.5-.5L20 16.8H4v2.5c0 .245-.177.45-.41.492l-.09.008H1.503c-.277 0-.5-.224-.5-.5L1 5.3c0-.276.224-.5.5-.5zm-.5 1H2l.002 13H3v-13zm19 4h-1l.002 9H22v-9zm-1.999 5H4v1h16.001v-1z" transform="translate(-1 -4.3)"/>
    </g>
</svg>
