<svg xmlns="http://www.w3.org/2000/svg" width="64" height="64" viewBox="0 0 64 64">
    <g fill="none" fill-rule="evenodd">
        <path d="M0 0H64V64H0z"/>
        <path fill="#003E78" fill-rule="nonzero" d="M4 12l5.334.002c.736 0 1.333.598 1.333 1.334V28.26h42.667V24c0-.693.528-1.263 1.205-1.327l.128-.006 5.333.001c.737 0 1.333.598 1.333 1.334v26.665c0 .736-.597 1.333-1.333 1.333h-5.327c-.736 0-1.333-.597-1.333-1.333l-.001-3.731-42.672-.038v3.769c0 .693-.53 1.262-1.205 1.327L9.333 52H4.007c-.736 0-1.333-.597-1.334-1.333l-.006-37.333C2.667 12.597 3.264 12 4 12zm1.333 2.667l.007 34.666H8V14.67l-2.667-.002zM56 25.334l.006 24h2.66v-24H56zm-2.665 5.593H10.667v13.305l42.67.037-.002-13.342z"/>
    </g>
</svg>
