<svg xmlns="http://www.w3.org/2000/svg" width="96" height="96" viewBox="0 0 96 96">
    <g fill="none" fill-rule="evenodd">
        <path d="M0 0H96V96H0z"/>
        <g fill="#B8B8B8">
            <path d="M5.4 6.614c2.982 0 5.4 2.418 5.4 5.4 0 2.983-2.418 5.4-5.4 5.4S0 14.997 0 12.014c0-2.982 2.418-5.4 5.4-5.4zm0 3.6c-.994 0-1.8.806-1.8 1.8s.806 1.8 1.8 1.8 1.8-.806 1.8-1.8-.806-1.8-1.8-1.8zM28.68 6.614c2.982 0 5.4 2.418 5.4 5.4 0 2.983-2.418 5.4-5.4 5.4s-5.4-2.417-5.4-5.4c0-2.982 2.418-5.4 5.4-5.4zm0 3.6c-.994 0-1.8.806-1.8 1.8s.806 1.8 1.8 1.8 1.8-.806 1.8-1.8-.806-1.8-1.8-1.8z" transform="translate(31.2 64.56)"/>
            <path fill-rule="nonzero" d="M25.074 12.491l3.405-3.383L18.594-.84c-.928-.934-2.43-.944-3.37-.034l-.052.051L5.48 9.134l3.44 3.348 7.99-8.208 8.164 8.217z" transform="translate(31.2 64.56)"/>
        </g>
        <path fill="#B8B8B8" fill-rule="nonzero" d="M64.8 32.28c.975 0 1.768.775 1.8 1.742V44.88c0 .994-.806 1.8-1.8 1.8-.975 0-1.768-.775-1.8-1.742V35.88H33.48v9c0 .975-.775 1.768-1.742 1.8h-.058c-.975 0-1.768-.775-1.8-1.742V34.08c0-.975.775-1.768 1.742-1.8H64.8z"/>
        <path fill="#003E78" fill-rule="nonzero" d="M85.92 42c2.982 0 5.4 2.418 5.4 5.4 0 2.953-2.37 5.352-5.31 5.4H10.32c-2.982 0-5.4-2.418-5.4-5.4 0-2.953 2.37-5.352 5.31-5.4h75.69z"/>
        <path fill="#2C98FF" fill-rule="nonzero" d="M79.616 25.886c1.406-1.406 3.685-1.406 5.091 0 1.386 1.384 1.406 3.618.062 5.028l-.061.062-34.07 34.078c-1.4 1.399-3.66 1.404-5.065.027l-.061-.062-9.692-9.957c-1.387-1.424-1.356-3.704.069-5.09 1.404-1.367 3.637-1.357 5.029.006l.062.062 7.146 7.342 31.49-31.496z"/>
    </g>
</svg>
