<svg xmlns="http://www.w3.org/2000/svg" width="13" height="12" viewBox="0 0 13 12">
    <g fill="none" fill-rule="evenodd">
        <path d="M0 0H12.247V12H0z" transform="translate(.082)"/>
        <path fill="#333" fill-rule="nonzero" d="M6.583.15c.423 0 .765.336.765.75 0 .348-.241.64-.57.725.003.01.004.019.004.028v.012l-.019.637c.72.119 1.372.434 1.895.888l.394-.44c-.077-.115-.122-.252-.122-.4 0-.417.357-.75.791-.75.435 0 .791.333.791.75s-.356.75-.79.75c-.093 0-.183-.015-.266-.043l-.437.49c.502.569.833 1.287.913 2.078l.376.048c.025.003.048.01.07.02.117-.261.385-.443.696-.443.422 0 .765.336.765.75s-.343.75-.765.75c-.366 0-.671-.25-.747-.586-.024.008-.053.011-.082.009l-.012-.002-.284-.036c-.021.579-.176 1.125-.436 1.608l.22.161c.136-.126.32-.204.524-.204.423 0 .766.336.766.75s-.343.75-.766.75-.765-.336-.765-.75c0-.036.002-.07.007-.105-.016-.004-.033-.013-.049-.024l-.01-.006-.195-.145c-.252.348-.563.651-.919.897l.194.26c.065-.017.135-.027.206-.027.423 0 .766.336.766.75s-.343.75-.766.75c-.422 0-.765-.336-.765-.75 0-.161.052-.31.14-.433l-.212-.289c-.529.27-1.129.422-1.765.422l.054-.001.014.462c0 .024-.002.047-.008.069.319.09.552.378.552.72 0 .414-.343.75-.765.75-.423 0-.766-.336-.766-.75 0-.322.207-.596.497-.703-.009-.02-.014-.045-.016-.07v-.012l-.015-.49c-.788-.092-1.503-.417-2.07-.904l-.415.494c.051.101.08.215.08.335 0 .414-.343.75-.765.75-.423 0-.766-.336-.766-.75s.343-.75.766-.75c.112 0 .219.024.315.066l.423-.5c-.305-.344-.548-.742-.71-1.178l-.809.167c-.12.262-.388.445-.7.445-.422 0-.765-.336-.765-.75s.343-.75.766-.75c.29 0 .544.16.673.394l.661-.135c-.038-.214-.059-.434-.059-.659 0-.266.029-.526.082-.776l-.359-.142c-.138.135-.329.218-.54.218-.422 0-.765-.336-.765-.75s.343-.75.766-.75.765.336.765.75c0 .027-.001.054-.004.08l.277.11c.171-.47.436-.898.772-1.26l-.657-.691c-.043.007-.087.011-.132.011-.423 0-.766-.336-.766-.75s.343-.75.766-.75c.422 0 .765.336.765.75 0 .184-.067.352-.18.482l.57.6c.235-.193.493-.36.77-.494l-.093-.199-.014-.04c-.414-.009-.747-.34-.747-.749 0-.414.343-.75.766-.75.422 0 .765.336.765.75 0 .215-.092.408-.24.545.017.016.03.035.042.055l.005.01.075.159c.36-.11.742-.169 1.139-.169.045 0 .09 0 .134.002l.018-.592c.001-.024.005-.047.012-.068-.276-.112-.47-.38-.47-.692 0-.414.342-.75.765-.75zm-.46 2.6c-.32 0-.629.044-.921.127l.11.233c.061.129-.019.273-.178.322-.155.048-.329-.011-.394-.133l-.005-.01-.094-.197c-.228.112-.441.249-.636.407l.124.13c.096.102.09.26-.013.354-.1.091-.255.089-.352-.004l-.008-.009-.118-.122c-.282.313-.504.679-.647 1.081l.473.19c.13.052.194.197.14.325-.051.125-.194.186-.322.141l-.01-.003-.412-.165c-.035.19-.053.384-.053.583 0 .19.016.375.048.556l.31-.063c.139-.029.27.093.292.272.021.175-.068.339-.201.374l-.011.002-.21.044c.129.325.31.624.534.888l.113-.132c.09-.107.25-.122.359-.034.105.086.123.237.042.343l-.008.01-.148.175c.475.412 1.072.692 1.73.783l-.01-.372c-.004-.14.107-.253.247-.254.136-.001.25.104.26.238v.011l.011.409c.51-.006.991-.125 1.42-.332l-.239-.321c-.083-.112-.057-.268.057-.35.11-.078.264-.057.349.047l.007.009.267.36c.315-.217.59-.485.811-.794l-.162-.12c-.113-.082-.135-.24-.05-.35.082-.107.235-.13.347-.056l.01.007.118.087c.218-.433.34-.921.34-1.437l-.002.067-.148-.019c-.139-.018-.234-.144-.214-.281.02-.134.143-.23.277-.218l.012.001.045.006c-.086-.614-.346-1.174-.732-1.63l-.168.189c-.093.104-.254.114-.36.023-.103-.088-.116-.24-.032-.343l.008-.01.196-.219c-.437-.38-.978-.647-1.575-.759l-.011.333c-.004.14-.121.251-.26.25-.136-.002-.244-.11-.246-.243v-.012l.012-.382zm.434 4.45c.353 0 .638.28.638.625s-.285.625-.638.625c-.352 0-.637-.28-.637-.625s.285-.625.637-.625zm-1.71-.1c.283 0 .511.224.511.5s-.228.5-.51.5c-.282 0-.51-.224-.51-.5s.228-.5.51-.5zm2.859-.75c.282 0 .51.224.51.5s-.228.5-.51.5c-.282 0-.51-.224-.51-.5s.228-.5.51-.5zm-1.43-1.3c.424 0 .766.336.766.75s-.342.75-.765.75-.766-.336-.766-.75.343-.75.766-.75zM4.543 5c.423 0 .765.336.765.75s-.342.75-.765.75-.766-.336-.766-.75S4.12 5 4.542 5zm3.623 0c.282 0 .51.224.51.5s-.228.5-.51.5c-.282 0-.51-.224-.51-.5s.228-.5.51-.5zM5.333 3.55c.352 0 .638.28.638.625s-.286.625-.638.625c-.353 0-.638-.28-.638-.625s.285-.625.638-.625zm1.837-.1c.352 0 .638.28.638.625s-.286.625-.638.625c-.352 0-.638-.28-.638-.625s.286-.625.638-.625z" transform="translate(.082)"/>
    </g>
</svg>
