<svg xmlns="http://www.w3.org/2000/svg" width="24" height="24" viewBox="0 0 24 24">
    <g fill="none" fill-rule="evenodd">
        <path d="M0 0H24V24H0z"/>
        <path fill="#003E78" fill-rule="nonzero" d="M12 4.5c-4.142 0-7.5 3.358-7.5 7.5 0 4.142 3.358 7.5 7.5 7.5 4.142 0 7.5-3.358 7.5-7.5 0-4.142-3.358-7.5-7.5-7.5zm0 1c3.59 0 6.5 2.91 6.5 6.5s-2.91 6.5-6.5 6.5-6.5-2.91-6.5-6.5S8.41 5.5 12 5.5zM12.9.3c-.828 0-1.5.672-1.5 1.5s.672 1.5 1.5 1.5 1.5-.672 1.5-1.5S13.728.3 12.9.3zM19.05 3.2c-.85 0-1.55.666-1.55 1.5s.7 1.5 1.55 1.5c.85 0 1.55-.666 1.55-1.5s-.7-1.5-1.55-1.5zM4.9 2.6c-.828 0-1.5.672-1.5 1.5s.672 1.5 1.5 1.5 1.5-.672 1.5-1.5-.672-1.5-1.5-1.5zM2.9 7.6c-.828 0-1.5.672-1.5 1.5s.672 1.5 1.5 1.5 1.5-.672 1.5-1.5-.672-1.5-1.5-1.5zM2 12.8c-.828 0-1.5.672-1.5 1.5s.672 1.5 1.5 1.5 1.5-.672 1.5-1.5-.672-1.5-1.5-1.5zM21.9 10.5c-.828 0-1.5.672-1.5 1.5s.672 1.5 1.5 1.5 1.5-.672 1.5-1.5-.672-1.5-1.5-1.5zM20.1 15.4c-.828 0-1.5.672-1.5 1.5s.672 1.5 1.5 1.5 1.5-.672 1.5-1.5-.672-1.5-1.5-1.5zM17.1 18.6c-.828 0-1.5.672-1.5 1.5s.672 1.5 1.5 1.5 1.5-.672 1.5-1.5-.672-1.5-1.5-1.5z"/>
        <path fill="#003E78" fill-rule="nonzero" d="M8.9 10c-.828 0-1.5.672-1.5 1.5S8.072 13 8.9 13s1.5-.672 1.5-1.5S9.728 10 8.9 10zM14.05 6.9c-.69 0-1.25.56-1.25 1.25s.56 1.25 1.25 1.25 1.25-.56 1.25-1.25-.56-1.25-1.25-1.25zM15.25 9.5c-.69 0-1.25.56-1.25 1.25S14.56 12 15.25 12s1.25-.56 1.25-1.25-.56-1.25-1.25-1.25zM10.45 7.1c-.69 0-1.25.56-1.25 1.25s.56 1.25 1.25 1.25 1.25-.56 1.25-1.25-.56-1.25-1.25-1.25zM15.35 12.7c-.69 0-1.25.56-1.25 1.25s.56 1.25 1.25 1.25 1.25-.56 1.25-1.25-.56-1.25-1.25-1.25zM8.5 1.8c-.828 0-1.5.672-1.5 1.5s.672 1.5 1.5 1.5S10 4.128 10 3.3s-.672-1.5-1.5-1.5zM12.3 10.1c-.828 0-1.5.672-1.5 1.5s.672 1.5 1.5 1.5 1.5-.672 1.5-1.5-.672-1.5-1.5-1.5zM12.85 14.4c-.69 0-1.25.56-1.25 1.25s.56 1.25 1.25 1.25 1.25-.56 1.25-1.25-.56-1.25-1.25-1.25zM9.75 14.2c-.69 0-1.25.56-1.25 1.25s.56 1.25 1.25 1.25S11 16.14 11 15.45s-.56-1.25-1.25-1.25zM4.9 17.8c-.828 0-1.5.672-1.5 1.5s.672 1.5 1.5 1.5 1.5-.672 1.5-1.5-.672-1.5-1.5-1.5zM11.9 20.5c-.828 0-1.5.672-1.5 1.5s.672 1.5 1.5 1.5 1.5-.672 1.5-1.5-.672-1.5-1.5-1.5z"/>
        <path fill="#2C98FF" fill-rule="nonzero" d="M12.9 1.3c.276 0 .5.224.5.5s-.224.5-.5.5-.5-.224-.5-.5.224-.5.5-.5zM19.05 4.2c.31 0 .55.23.55.5s-.24.5-.55.5c-.31 0-.55-.23-.55-.5s.24-.5.55-.5zM4.9 3.6c.276 0 .5.224.5.5s-.224.5-.5.5-.5-.224-.5-.5.224-.5.5-.5zM2.9 8.6c.276 0 .5.224.5.5s-.224.5-.5.5-.5-.224-.5-.5.224-.5.5-.5zM2 13.8c.276 0 .5.224.5.5s-.224.5-.5.5-.5-.224-.5-.5.224-.5.5-.5zM21.9 11.5c.276 0 .5.224.5.5s-.224.5-.5.5-.5-.224-.5-.5.224-.5.5-.5zM20.1 16.4c.276 0 .5.224.5.5s-.224.5-.5.5-.5-.224-.5-.5.224-.5.5-.5zM17.1 19.6c.276 0 .5.224.5.5s-.224.5-.5.5-.5-.224-.5-.5.224-.5.5-.5zM8.9 11c.276 0 .5.224.5.5s-.224.5-.5.5-.5-.224-.5-.5.224-.5.5-.5zM14.05 7.9c.138 0 .25.112.25.25s-.112.25-.25.25-.25-.112-.25-.25.112-.25.25-.25zM15.25 10.5c.138 0 .25.112.25.25s-.112.25-.25.25-.25-.112-.25-.25.112-.25.25-.25zM10.45 8.1c.138 0 .25.112.25.25s-.112.25-.25.25-.25-.112-.25-.25.112-.25.25-.25zM15.35 13.7c.138 0 .25.112.25.25s-.112.25-.25.25-.25-.112-.25-.25.112-.25.25-.25zM8.5 2.8c.276 0 .5.224.5.5s-.224.5-.5.5-.5-.224-.5-.5.224-.5.5-.5zM9.75 15.2c.138 0 .25.112.25.25s-.112.25-.25.25-.25-.112-.25-.25.112-.25.25-.25zM4.9 18.8c.276 0 .5.224.5.5s-.224.5-.5.5-.5-.224-.5-.5.224-.5.5-.5zM11.9 21.5c.276 0 .5.224.5.5s-.224.5-.5.5-.5-.224-.5-.5.224-.5.5-.5zM12.85 15.4c.138 0 .25.112.25.25s-.112.25-.25.25-.25-.112-.25-.25.112-.25.25-.25zM12.3 11.1c.276 0 .5.224.5.5s-.224.5-.5.5-.5-.224-.5-.5.224-.5.5-.5z"/>
        <path fill="#003E78" fill-rule="nonzero" d="M11.551 17.402c.268-.026.507.164.544.427l.003.022.3 3.048c.027.275-.174.52-.449.547-.268.026-.507-.164-.544-.427l-.003-.022-.3-3.048c-.027-.275.174-.52.449-.547zM7.215 15.882c.175-.213.49-.243.703-.067.207.17.241.472.082.684l-.015.02-1.9 2.3c-.175.212-.49.242-.703.066-.207-.17-.241-.472-.082-.684l.015-.02 1.9-2.3zM6.202 12.984c.272-.044.529.142.572.415.042.265-.133.515-.394.568l-.021.004-3.28.523c-.273.043-.53-.143-.573-.415-.042-.266.133-.516.394-.569l.021-.004 3.28-.522z"/>
        <path fill="#003E78" fill-rule="nonzero" d="M6.202 12.984c.272-.044.529.142.572.415.042.265-.133.515-.394.568l-.021.004-3.28.523c-.273.043-.53-.143-.573-.415-.042-.266.133-.516.394-.569l.021-.004 3.28-.522zM3.437 9.411c.101-.248.38-.371.63-.282l.022.008 2.7 1.1c.255.104.378.396.274.652-.101.248-.38.371-.63.282l-.022-.008-2.7-1.1c-.255-.104-.378-.396-.274-.652zM5.1 4.778c.196-.183.5-.177.69.008l.016.017L8.092 7.26c.188.203.176.519-.026.707-.196.183-.5.177-.69-.008l-.016-.017-2.286-2.457c-.188-.202-.177-.518.025-.706zM17.85 5.37c.183-.207.498-.228.706-.046.202.176.227.48.062.687l-.015.018-1.927 2.2c-.182.208-.498.23-.705.047-.202-.176-.228-.48-.063-.687l.016-.018 1.927-2.2zM8.771 4.233c.251-.096.532.024.638.268l.008.02.65 1.698c.099.258-.03.547-.288.646-.251.096-.532-.024-.638-.268l-.008-.02-.65-1.698c-.099-.258.03-.547.288-.646zM20.9 11.5c.276 0 .5.224.5.5 0 .269-.212.488-.478.5h-2.695c-.276 0-.5-.224-.5-.5 0-.269.212-.488.478-.5H20.9zM16.9 14.8c.162-.215.462-.263.682-.113l.019.014 1.5 1.13c.22.165.265.479.098.7-.161.214-.461.261-.68.112l-.02-.014-1.5-1.13c-.22-.166-.265-.48-.098-.7zM14.506 16.496c.217-.158.518-.116.684.091l.014.019 1.6 2.2c.163.223.113.536-.11.698-.217.158-.518.116-.684-.091l-.014-.019-1.6-2.2c-.163-.223-.113-.536.11-.698zM12.9 2.3c.269 0 .488.212.5.478v3.07c0 .276-.224.5-.5.5-.269 0-.488-.212-.5-.478V2.8c0-.276.224-.5.5-.5z"/>
    </g>
</svg>
