<svg xmlns="http://www.w3.org/2000/svg" width="24" height="24" viewBox="0 0 24 24">
    <g fill="none" fill-rule="evenodd">
        <path d="M0 0H24V24H0z"/>
        <path fill="#E30A0A" fill-rule="nonzero" d="M12.9.3c.828 0 1.5.672 1.5 1.5 0 .653-.417 1.208-1 1.414V4.63c1.352.256 2.576.874 3.566 1.75l.772-.88c-.15-.232-.238-.505-.238-.8 0-.834.7-1.5 1.55-1.5.85 0 1.55.666 1.55 1.5s-.7 1.5-1.55 1.5c-.182 0-.357-.03-.52-.087l-.858.98c1.037 1.197 1.701 2.727 1.812 4.407h1.001c.206-.582.762-1 1.415-1 .828 0 1.5.672 1.5 1.5s-.672 1.5-1.5 1.5c-.653 0-1.208-.417-1.414-1h-1.002c-.071 1.073-.367 2.083-.841 2.985l.428.324c.268-.254.63-.409 1.029-.409.828 0 1.5.672 1.5 1.5s-.672 1.5-1.5 1.5-1.5-.672-1.5-1.5c0-.07.005-.14.014-.208-.033-.011-.065-.028-.096-.05l-.019-.013-.382-.288c-.494.695-1.104 1.302-1.8 1.793l.379.521c.128-.036.264-.055.404-.055.828 0 1.5.672 1.5 1.5s-.672 1.5-1.5 1.5-1.5-.672-1.5-1.5c0-.324.103-.623.277-.869l-.418-.575c-.963.502-2.048.8-3.2.84l.107 1.078c.6.196 1.034.76 1.034 1.426 0 .828-.672 1.5-1.5 1.5s-1.5-.672-1.5-1.5c0-.64.4-1.185.964-1.401l-.112-1.136c-1.6-.158-3.05-.819-4.194-1.821l-.816.988c.101.201.158.43.158.67 0 .828-.672 1.5-1.5 1.5s-1.5-.672-1.5-1.5.672-1.5 1.5-1.5c.22 0 .43.048.619.133l.829-1.003c-.68-.78-1.203-1.702-1.516-2.715l-1.337.213C3.43 15.196 2.785 15.8 2 15.8c-.828 0-1.5-.672-1.5-1.5s.672-1.5 1.5-1.5c.515 0 .97.26 1.24.655l1.362-.217C4.535 12.836 4.5 12.422 4.5 12c0-.531.055-1.05.16-1.55l-.703-.285c-.271.269-.645.435-1.057.435-.828 0-1.5-.672-1.5-1.5s.672-1.5 1.5-1.5 1.5.672 1.5 1.5c0 .054-.003.107-.008.16l.542.22c.336-.941.854-1.796 1.512-2.52L5.16 5.577c-.084.014-.17.022-.259.022-.828 0-1.5-.672-1.5-1.5s.672-1.5 1.5-1.5 1.5.672 1.5 1.5c0 .367-.132.704-.351.965l1.117 1.2c.45-.379.944-.706 1.475-.973l-.158-.413-.023-.08C7.65 4.78 7 4.115 7 3.3c0-.828.672-1.5 1.5-1.5s1.5.672 1.5 1.5c0 .488-.233.922-.594 1.196l.003.005.008.02.146.384C10.327 4.642 11.147 4.5 12 4.5c.134 0 .268.004.4.01V3.216c-.582-.206-1-.762-1-1.415 0-.828.672-1.5 1.5-1.5zM12 5.5c-.727 0-1.426.12-2.079.34l.146.38c.099.257-.03.546-.288.645-.251.096-.532-.024-.638-.268l-.008-.02-.132-.345c-.412.214-.798.472-1.152.766l.243.261c.188.203.176.519-.026.707-.196.183-.5.177-.69-.008l-.016-.017-.23-.247c-.553.626-.988 1.359-1.269 2.164l.928.379c.255.104.378.396.274.652-.101.248-.38.371-.63.282l-.022-.008-.807-.329c-.068.378-.104.768-.104 1.166 0 .368.03.73.09 1.08l.612-.096c.272-.044.529.142.572.415.042.265-.133.515-.394.568l-.021.004-.527.085c.257.771.655 1.478 1.162 2.091l.22-.265c.176-.213.492-.243.704-.067.207.17.241.472.082.684l-.015.02-.29.351c.947.838 2.14 1.403 3.456 1.575l-.049-.496c-.027-.275.174-.52.449-.547.268-.026.507.164.544.427l.003.022.063.647c.968-.024 1.883-.259 2.702-.66l-.467-.644c-.163-.223-.113-.536.11-.698.217-.158.518-.116.684.091l.014.019.524.72c.617-.433 1.156-.97 1.59-1.587l-.319-.24c-.22-.166-.265-.48-.098-.7.161-.214.461-.262.68-.112l.02.014.23.174c.359-.726.586-1.527.65-2.375h-.254c-.276 0-.5-.224-.5-.5 0-.269.212-.488.478-.5h.276c-.105-1.38-.641-2.64-1.475-3.646l-.33.375c-.182.208-.498.23-.705.047-.202-.176-.228-.48-.063-.687l.016-.018.384-.439c-.814-.72-1.808-1.24-2.908-1.48v.196c0 .276-.224.5-.5.5-.269 0-.488-.212-.5-.478v-.358c-.132-.008-.266-.012-.4-.012zm.85 8.9c.69 0 1.25.56 1.25 1.25s-.56 1.25-1.25 1.25-1.25-.56-1.25-1.25.56-1.25 1.25-1.25zm-3.1-.2c.69 0 1.25.56 1.25 1.25s-.56 1.25-1.25 1.25-1.25-.56-1.25-1.25.56-1.25 1.25-1.25zm5.6-1.5c.69 0 1.25.56 1.25 1.25s-.56 1.25-1.25 1.25-1.25-.56-1.25-1.25.56-1.25 1.25-1.25zm-3.05-2.6c.828 0 1.5.672 1.5 1.5s-.672 1.5-1.5 1.5-1.5-.672-1.5-1.5.672-1.5 1.5-1.5zM8.9 10c.828 0 1.5.672 1.5 1.5S9.728 13 8.9 13s-1.5-.672-1.5-1.5.672-1.5 1.5-1.5zm6.35-.5c.69 0 1.25.56 1.25 1.25S15.94 12 15.25 12 14 11.44 14 10.75s.56-1.25 1.25-1.25zm-4.8-2.4c.69 0 1.25.56 1.25 1.25s-.56 1.25-1.25 1.25S9.2 9.04 9.2 8.35s.56-1.25 1.25-1.25zm3.6-.2c.69 0 1.25.56 1.25 1.25s-.56 1.25-1.25 1.25-1.25-.56-1.25-1.25.56-1.25 1.25-1.25z"/>
    </g>
</svg>
