<svg xmlns="http://www.w3.org/2000/svg" width="22" height="22" viewBox="0 0 22 22">
    <g fill="none" fill-rule="evenodd">
        <path d="M0 0H24V24H0z" transform="translate(-1 -1)"/>
        <path fill="#6208FF" fill-rule="nonzero" d="M17.5 1c.276 0 .5.224.5.5v2.6c0 .276-.224.5-.5.5H16v5.864l6.94 11.782c.193.328-.035.739-.41.754H4.5c-.387 0-.627-.42-.431-.754L4.802 21H3.5c-.245 0-.45-.157-.492-.363L3 20.557V8.787l-1.499.004c-.24 0-.44-.148-.49-.346l-.01-.077L1 6.043c0-.218.177-.398.41-.436L1.5 5.6h8c.245 0 .45.157.492.363l.008.08v2.3c0 .218-.177.399-.41.436l-.09.007H8v6.777l3-5.1V4.602l-1.499.005c-.269 0-.49-.212-.5-.479L9 1.5c0-.276.224-.5.5-.5zM17 2h-7v1.604l1.499-.004c.269 0 .49.212.5.478L12 4.1v6.5c0 .09-.024.177-.069.254L5.374 22h16.26L15.07 10.854c-.04-.069-.063-.145-.068-.224L15 4.1c0-.276.224-.5.5-.5H17V2zm-.071 14l2.935 5H7l2.929-5h7zM9 6.6H2v1.396l1.499-.004c.24 0 .44.146.49.341l.01.075.001.02V20h1.39L7 17.263V8.427c0-.208.168-.382.392-.425l.086-.01H9V6.6z" transform="translate(-1 -1)"/>
    </g>
</svg>
