<svg xmlns="http://www.w3.org/2000/svg" width="16" height="16" viewBox="0 0 16 16">
    <g fill="none" fill-rule="evenodd">
        <path d="M0 0H16V16H0z"/>
        <path fill="#003E78" fill-rule="nonzero" d="M8 3C5.239 3 3 5.239 3 8s2.239 5 5 5 5-2.239 5-5-2.239-5-5-5zm0 .667c2.393 0 4.333 1.94 4.333 4.333 0 2.393-1.94 4.333-4.333 4.333-2.393 0-4.333-1.94-4.333-4.333 0-2.393 1.94-4.333 4.333-4.333zM8.6.2c-.552 0-1 .448-1 1s.448 1 1 1 1-.448 1-1-.448-1-1-1zM12.7 2.133c-.567 0-1.033.444-1.033 1s.466 1 1.033 1 1.033-.444 1.033-1-.466-1-1.033-1zM3.267 1.733c-.553 0-1 .448-1 1 0 .553.447 1 1 1 .552 0 1-.447 1-1 0-.552-.448-1-1-1zM1.933 5.067c-.552 0-1 .447-1 1 0 .552.448 1 1 1 .553 0 1-.448 1-1 0-.553-.447-1-1-1zM1.333 8.533c-.552 0-1 .448-1 1 0 .553.448 1 1 1 .553 0 1-.447 1-1 0-.552-.447-1-1-1zM14.6 7c-.552 0-1 .448-1 1s.448 1 1 1 1-.448 1-1-.448-1-1-1zM13.4 10.267c-.552 0-1 .447-1 1 0 .552.448 1 1 1s1-.448 1-1c0-.553-.448-1-1-1zM11.4 12.4c-.552 0-1 .448-1 1s.448 1 1 1 1-.448 1-1-.448-1-1-1z"/>
        <path fill="#003E78" fill-rule="nonzero" d="M5.933 6.667c-.552 0-1 .447-1 1 0 .552.448 1 1 1 .553 0 1-.448 1-1 0-.553-.447-1-1-1zM9.367 4.6c-.46 0-.834.373-.834.833 0 .46.373.834.834.834.46 0 .833-.373.833-.834 0-.46-.373-.833-.833-.833zM10.167 6.333c-.46 0-.834.373-.834.834 0 .46.373.833.834.833.46 0 .833-.373.833-.833 0-.46-.373-.834-.833-.834zM6.967 4.733c-.46 0-.834.373-.834.834 0 .46.373.833.834.833.46 0 .833-.373.833-.833 0-.46-.373-.834-.833-.834zM10.233 8.467c-.46 0-.833.373-.833.833 0 .46.373.833.833.833.46 0 .834-.373.834-.833 0-.46-.373-.833-.834-.833zM5.667 1.2c-.553 0-1 .448-1 1s.447 1 1 1c.552 0 1-.448 1-1s-.448-1-1-1zM8.2 6.733c-.552 0-1 .448-1 1 0 .553.448 1 1 1s1-.447 1-1c0-.552-.448-1-1-1zM8.567 9.6c-.46 0-.834.373-.834.833 0 .46.373.834.834.834.46 0 .833-.373.833-.834 0-.46-.373-.833-.833-.833zM6.5 9.467c-.46 0-.833.373-.833.833 0 .46.373.833.833.833.46 0 .833-.373.833-.833 0-.46-.373-.833-.833-.833zM3.267 11.867c-.553 0-1 .447-1 1 0 .552.447 1 1 1 .552 0 1-.448 1-1 0-.553-.448-1-1-1zM7.933 13.667c-.552 0-1 .447-1 1 0 .552.448 1 1 1 .553 0 1-.448 1-1 0-.553-.447-1-1-1z"/>
        <path fill="#2C98FF" fill-rule="nonzero" d="M8.6.867c.184 0 .333.149.333.333 0 .184-.149.333-.333.333-.184 0-.333-.149-.333-.333 0-.184.149-.333.333-.333zM12.7 2.8c.206 0 .367.153.367.333 0 .18-.161.334-.367.334s-.367-.153-.367-.334c0-.18.161-.333.367-.333zM3.267 2.4c.184 0 .333.15.333.333 0 .184-.15.334-.333.334-.184 0-.334-.15-.334-.334 0-.184.15-.333.334-.333zM1.933 5.733c.184 0 .334.15.334.334 0 .184-.15.333-.334.333-.184 0-.333-.15-.333-.333 0-.184.15-.334.333-.334zM1.333 9.2c.184 0 .334.15.334.333 0 .184-.15.334-.334.334-.184 0-.333-.15-.333-.334 0-.184.15-.333.333-.333zM14.6 7.667c.184 0 .333.149.333.333 0 .184-.149.333-.333.333-.184 0-.333-.149-.333-.333 0-.184.149-.333.333-.333zM13.4 10.933c.184 0 .333.15.333.334 0 .184-.149.333-.333.333-.184 0-.333-.15-.333-.333 0-.184.149-.334.333-.334zM11.4 13.067c.184 0 .333.149.333.333 0 .184-.149.333-.333.333-.184 0-.333-.149-.333-.333 0-.184.149-.333.333-.333zM5.933 7.333c.184 0 .334.15.334.334 0 .184-.15.333-.334.333-.184 0-.333-.15-.333-.333 0-.184.15-.334.333-.334zM9.367 5.267c.092 0 .166.074.166.166 0 .092-.074.167-.166.167-.092 0-.167-.075-.167-.167 0-.092.075-.166.167-.166zM10.167 7c.092 0 .166.075.166.167 0 .092-.074.166-.166.166-.092 0-.167-.074-.167-.166 0-.092.075-.167.167-.167zM6.967 5.4c.092 0 .166.075.166.167 0 .092-.074.166-.166.166-.092 0-.167-.074-.167-.166 0-.092.075-.167.167-.167zM10.233 9.133c.092 0 .167.075.167.167 0 .092-.075.167-.167.167-.092 0-.166-.075-.166-.167 0-.092.074-.167.166-.167zM5.667 1.867c.184 0 .333.149.333.333 0 .184-.15.333-.333.333-.184 0-.334-.149-.334-.333 0-.184.15-.333.334-.333zM6.5 10.133c.092 0 .167.075.167.167 0 .092-.075.167-.167.167-.092 0-.167-.075-.167-.167 0-.092.075-.167.167-.167zM3.267 12.533c.184 0 .333.15.333.334 0 .184-.15.333-.333.333-.184 0-.334-.15-.334-.333 0-.184.15-.334.334-.334zM7.933 14.333c.184 0 .334.15.334.334 0 .184-.15.333-.334.333-.184 0-.333-.15-.333-.333 0-.184.15-.334.333-.334zM8.567 10.267c.092 0 .166.074.166.166 0 .092-.074.167-.166.167-.092 0-.167-.075-.167-.167 0-.092.075-.166.167-.166zM8.2 7.4c.184 0 .333.15.333.333 0 .184-.149.334-.333.334-.184 0-.333-.15-.333-.334 0-.184.149-.333.333-.333z"/>
        <path fill="#003E78" fill-rule="nonzero" d="M7.747 11.602c.206-.018.39.109.418.284l.002.015.231 2.032c.02.183-.134.346-.345.364-.206.018-.39-.109-.418-.284l-.002-.015-.231-2.032c-.021-.183.134-.346.345-.364zM4.81 10.588c.117-.142.327-.162.469-.045.138.114.16.315.055.457l-.01.012-1.267 1.534c-.117.142-.327.162-.47.044-.137-.113-.16-.315-.054-.456l.01-.013 1.267-1.533zM4.134 8.656c.182-.03.353.095.382.276.028.177-.089.344-.263.38l-.014.002-2.187.349c-.181.028-.352-.095-.381-.277-.028-.177.088-.344.262-.38l.015-.002 2.186-.348z"/>
        <path fill="#003E78" fill-rule="nonzero" d="M4.134 8.656c.182-.03.353.095.382.276.028.177-.089.344-.263.38l-.014.002-2.187.349c-.181.028-.352-.095-.381-.277-.028-.177.088-.344.262-.38l.015-.002 2.186-.348zM2.291 6.274c.068-.166.254-.248.42-.188l.015.005 1.8.734c.17.07.252.264.183.434-.068.166-.254.248-.42.188l-.015-.005-1.8-.733c-.17-.07-.252-.264-.183-.435zM3.4 3.185c.13-.122.333-.118.46.006l.01.011L5.395 4.84c.126.134.118.345-.016.47-.131.122-.334.119-.46-.005l-.012-.011-1.523-1.638c-.126-.134-.118-.345.017-.47zM11.9 3.58c.122-.138.332-.152.47-.03.135.117.152.319.042.457l-.01.013-1.285 1.466c-.12.139-.331.153-.47.031-.134-.117-.151-.32-.041-.458l.01-.012L11.9 3.58zM5.847 2.822c.168-.064.355.016.425.178l.006.014.433 1.132c.066.172-.02.365-.192.43-.167.065-.354-.015-.425-.178l-.005-.014-.434-1.131c-.065-.172.02-.365.192-.431zM13.933 7.667c.184 0 .334.224.334.5 0 .269-.142.488-.32.5h-1.796c-.184 0-.333-.224-.333-.5 0-.27.141-.489.319-.5h1.796zM11.267 9.866c.108-.143.308-.175.454-.075l.013.01 1 .752c.147.111.176.32.066.467-.108.143-.308.175-.454.075l-.013-.009-1-.753c-.147-.11-.177-.32-.066-.467zM9.67 10.997c.145-.105.346-.077.457.061l.01.013 1.066 1.466c.108.15.075.358-.074.466-.144.105-.345.077-.456-.061l-.01-.013-1.066-1.466c-.108-.15-.075-.358.074-.466zM8.767 1.533c.269 0 .488.142.5.32v2.046c0 .184-.224.333-.5.333-.27 0-.489-.141-.5-.319V1.867c0-.184.224-.334.5-.334z"/>
    </g>
</svg>
