<svg xmlns="http://www.w3.org/2000/svg" width="16" height="16" viewBox="0 0 16 16">
    <g fill="none" fill-rule="evenodd">
        <path d="M0 0H16V16H0z"/>
        <path fill="#333" fill-rule="nonzero" d="M8 .667c4.05 0 7.333 3.283 7.333 7.333 0 4.05-3.283 7.333-7.333 7.333C3.95 15.333.667 12.05.667 8 .667 3.95 3.95.667 8 .667zm0 7.775l-4.478 4.477-.012.01c1.185 1.08 2.76 1.738 4.49 1.738 1.73 0 3.305-.659 4.49-1.739-.005-.002-.009-.005-.012-.009L8 8.442zM3.073 3.509C1.993 4.694 1.333 6.27 1.333 8c0 1.73.66 3.306 1.74 4.49l.019-.023L7.558 8 3.092 3.533zm9.854 0l-.019.024L8.442 8l4.466 4.467.02.024c1.08-1.185 1.739-2.761 1.739-4.491 0-1.73-.66-3.306-1.74-4.49zM8 1.333c-1.73 0-3.306.66-4.49 1.74.004 0 .008.004.012.008L8 7.558l4.478-4.477.013-.008C11.306 1.993 9.73 1.333 8 1.333z"/>
    </g>
</svg>
