<svg xmlns="http://www.w3.org/2000/svg" width="16" height="16" viewBox="0 0 16 16">
    <g fill="none" fill-rule="evenodd">
        <path d="M0 0H16V16H0z"/>
        <path fill="#333" fill-rule="nonzero" d="M8.6.2c.552 0 1 .448 1 1 0 .467-.32.859-.752.97.003.014.005.03.006.046v.016l-.018.838c.94.158 1.791.578 2.475 1.184l.514-.588c-.1-.154-.158-.336-.158-.533 0-.556.466-1 1.033-1s1.033.444 1.033 1-.466 1-1.033 1c-.121 0-.238-.02-.347-.057l-.572.652c.657.76 1.09 1.718 1.195 2.774l.492.07c.03.003.059.012.086.023.153-.35.504-.595.913-.595.552 0 1 .448 1 1s-.448 1-1 1c-.475 0-.873-.331-.975-.776-.032.01-.067.012-.101.01l-.016-.003-.378-.052c-.027.772-.23 1.5-.568 2.144l.285.216c.18-.169.42-.272.686-.272.552 0 1 .447 1 1 0 .552-.448 1-1 1s-1-.448-1-1c0-.04.002-.079.007-.117l.004-.02c-.023-.009-.045-.02-.065-.035l-.013-.009-.255-.192c-.33.463-.736.868-1.2 1.196l.252.347c.086-.024.176-.037.27-.037.552 0 1 .448 1 1s-.448 1-1 1-1-.448-1-1c0-.215.068-.415.184-.578l-.278-.385C9.616 12.797 8.832 13 8 13l.071-.002.012.607c0 .035-.004.068-.013.1.42.116.73.503.73.962 0 .552-.448 1-1 1s-1-.448-1-1c0-.426.266-.79.641-.934-.014-.03-.022-.065-.024-.1v-.016l-.014-.652c-1.027-.122-1.959-.556-2.698-1.204l-.544.659c.068.134.106.286.106.447 0 .552-.448 1-1 1-.553 0-1-.448-1-1 0-.553.447-1 1-1 .147 0 .286.031.412.088l.553-.669c-.4-.457-.717-.987-.93-1.568l-1.055.222c-.156.35-.506.593-.914.593-.552 0-1-.447-1-1 0-.552.448-1 1-1 .38 0 .712.213.88.526l.864-.18C3.027 8.594 3 8.299 3 8c0-.354.037-.7.107-1.033l-.468-.191c-.181.18-.43.29-.706.29-.552 0-1-.447-1-1 0-.552.448-1 1-1 .553 0 1 .448 1 1 0 .037-.002.072-.005.107l.36.148c.225-.628.57-1.198 1.01-1.681l-.858-.922c-.057.01-.114.015-.173.015-.553 0-1-.447-1-1 0-.552.447-1 1-1 .552 0 1 .448 1 1 0 .245-.088.47-.234.643l.744.801c.306-.258.644-.48 1.006-.66l-.123-.264-.019-.053c-.54-.014-.974-.456-.974-1 0-.552.447-1 1-1 .552 0 1 .448 1 1 0 .286-.12.544-.313.727.021.021.04.046.054.073l.007.014.098.21C6.983 3.08 7.482 3 8 3c.057 0 .114.001.17.003l.017-.785c0-.035.007-.07.018-.101C7.85 1.966 7.6 1.612 7.6 1.2c0-.552.448-1 1-1zM8 3.667c-.418 0-.822.059-1.205.17l.145.31c.08.171-.025.364-.233.43-.203.064-.43-.016-.515-.179l-.007-.014-.121-.262c-.299.15-.577.332-.831.543l.161.175c.126.134.118.345-.016.47-.131.122-.334.119-.46-.005l-.012-.011-.153-.164c-.369.417-.658.905-.846 1.442l.619.253c.17.07.252.264.183.434-.068.166-.254.248-.42.188l-.015-.005-.538-.219c-.046.252-.07.512-.07.777 0 .253.022.5.064.742l.404-.085c.182-.038.353.125.382.364.028.232-.089.45-.263.497l-.014.004-.275.058c.17.433.407.832.699 1.184l.147-.176c.117-.142.327-.162.469-.045.138.114.16.315.055.457l-.01.012-.194.235c.622.55 1.402.923 2.263 1.044l-.01-.487c-.003-.184.144-.336.328-.34.179-.003.327.135.339.312v.016l.011.54c.663-.008 1.289-.166 1.848-.44l-.312-.43c-.108-.148-.075-.357.074-.465.144-.105.345-.077.456.061l.01.013.349.479c.41-.288.77-.647 1.06-1.057l-.213-.16c-.147-.11-.177-.32-.066-.467.108-.143.308-.175.454-.075l.013.01.154.115c.285-.578.445-1.228.445-1.916l-.002.085-.196-.027c-.182-.026-.31-.195-.284-.377.025-.177.185-.302.361-.285l.016.001.065.009c-.112-.818-.453-1.563-.955-2.17l-.22.25c-.122.139-.332.153-.471.031-.134-.117-.151-.32-.041-.458l.01-.012.257-.291c-.57-.506-1.275-.863-2.053-1.012l-.008.438c-.004.184-.156.33-.34.326-.179-.004-.321-.148-.326-.324v-.016l.01-.498zM8.567 9.6c.46 0 .833.373.833.833 0 .46-.373.834-.833.834-.46 0-.834-.373-.834-.834 0-.46.373-.833.834-.833zm-2.234-.133c.369 0 .667.298.667.666 0 .369-.298.667-.667.667-.368 0-.666-.298-.666-.667 0-.368.298-.666.666-.666zm3.734-1c.368 0 .666.298.666.666 0 .369-.298.667-.666.667-.369 0-.667-.298-.667-.667 0-.368.298-.666.667-.666zM8.2 6.733c.552 0 1 .448 1 1 0 .553-.448 1-1 1s-1-.447-1-1c0-.552.448-1 1-1zm-2.267-.066c.553 0 1 .447 1 1 0 .552-.447 1-1 1-.552 0-1-.448-1-1 0-.553.448-1 1-1zm4.734 0c.368 0 .666.298.666.666 0 .369-.298.667-.666.667-.369 0-.667-.298-.667-.667 0-.368.298-.666.667-.666zm-3.7-1.934c.46 0 .833.373.833.834 0 .46-.373.833-.833.833-.46 0-.834-.373-.834-.833 0-.46.373-.834.834-.834zm2.4-.133c.46 0 .833.373.833.833 0 .46-.373.834-.833.834-.46 0-.834-.373-.834-.834 0-.46.373-.833.834-.833z"/>
    </g>
</svg>
