<svg xmlns="http://www.w3.org/2000/svg" width="16" height="16" viewBox="0 0 16 16">
    <g fill="#2C98FF">
        <path d="M11.81 2.414c.124-.111.313-.107.432.01.122.123.122.32 0 .443L7.775 7.333l4.467 4.467c.122.122.122.32 0 .442-.119.118-.308.122-.431.01L7.333 7.776l-4.477 4.478c-.106.095-.26.106-.376.032l-.055-.043c-.122-.122-.122-.32 0-.442L6.89 7.333 2.425 2.867c-.122-.122-.122-.32 0-.442.118-.118.308-.122.43-.01L7.334 6.89z" transform="translate(.667 .667)"/>
        <path d="M7.333 0C3.283 0 0 3.283 0 7.333c0 4.05 3.283 7.334 7.333 7.334 4.05 0 7.334-3.284 7.334-7.334S11.383 0 7.333 0zm0 .667C11.015.667 14 3.65 14 7.333 14 11.015 11.015 14 7.333 14S.667 11.015.667 7.333 3.65.667 7.333.667z" transform="translate(.667 .667)"/>
    </g>
</svg>
