<svg xmlns="http://www.w3.org/2000/svg" width="22" height="16" viewBox="0 0 22 16">
    <g fill="none" fill-rule="evenodd">
        <path d="M0 0.7H24V24.7H0z" transform="translate(-1 -5)"/>
        <g fill-rule="nonzero">
            <path fill="#003E78" d="M2.5 0c.276.001.5.225.5.5V9h16.001L19 4.5c0-.245.177-.45.41-.492L19.5 4h2c.276 0 .5.225.5.5v10c0 .276-.224.5-.5.5h-1.997c-.277 0-.5-.224-.5-.5L19 12H3v2.5c0 .245-.177.45-.41.492L2.5 15H.503c-.277 0-.5-.224-.5-.5L0 .5C0 .224.224 0 .5 0zM2 1H1l.002 13H2V1zm19 4h-1l.002 9H21V5zm-1.999 5H3v1h16.001v-1z" transform="translate(-1 -5) translate(1 5.5)"/>
            <path fill="#2C98FF" d="M15.524 2.9C17.115 2.9 18 3.729 18 5.208V7.5c0 .276-.245.5-.547.5H9.147c-.302 0-.547-.224-.547-.5V3.4c0-.276.245-.5.547-.5zM5.8 2.9c.994 0 1.8.806 1.8 1.8s-.806 1.8-1.8 1.8S4 5.694 4 4.7s.806-1.8 1.8-1.8z" transform="translate(-1 -5) translate(1 5.5)"/>
        </g>
    </g>
</svg>
