<svg xmlns="http://www.w3.org/2000/svg" width="14" height="18" viewBox="0 0 14 18">
    <g fill="none" fill-rule="evenodd">
        <path d="M0 0H20V20H0z" transform="translate(-3 -1)"/>
        <path fill="#FFF" d="M12.045 4.697H8.258v-.379c0-1.044.85-1.894 1.894-1.894 1.043 0 1.893.85 1.893 1.894v.379zm.758 0v-.379c0-1.462-1.19-2.651-2.651-2.651-1.463 0-2.652 1.19-2.652 2.651v.379H3.333v.758H16.97v-.758h-4.167zm-.758 10.985h.758V7.348h-.758v8.334zm-4.545 0h.758V7.348H7.5v8.334zm7.955 1.894H4.848V6.212h-.757v11.364c0 .418.34.757.757.757h10.607c.418 0 .757-.34.757-.757V6.212h-.757v11.364z" transform="translate(-3 -1)"/>
    </g>
</svg>
