<svg xmlns="http://www.w3.org/2000/svg" width="25" height="24" viewBox="0 0 25 24">
    <g fill="none" fill-rule="evenodd">
        <path d="M0 0H24V24H0z"/>
        <path fill="#333" fill-rule="nonzero" d="M18 8c.513 0 .936.386.993.883L19 9v12c0 .514-.387.937-.885.993l-.117.007-12-.023c-.512-.001-.934-.387-.991-.884L5 20.977V9c0-.552.448-1 1-1 .513 0 .936.386.993.883L7 9v10.978l10 .02V9c0-.513.386-.936.883-.993L18 8zm-8 1c.513 0 .936.483.993 1.104l.007.146v7.5c0 .69-.448 1.25-1 1.25-.513 0-.936-.483-.993-1.104L9 17.75v-7.5C9 9.56 9.448 9 10 9zm4 0c.513 0 .936.483.993 1.104l.007.146v7.5c0 .69-.448 1.25-1 1.25-.513 0-.936-.483-.993-1.104L13 17.75v-7.5c0-.69.448-1.25 1-1.25zm-2-6c-1.054 0-1.918.816-1.995 1.85L10 5H8c0-2.21 1.79-4 4-4 2.142 0 3.891 1.684 3.995 3.8L16 5h3.941C20.526 5 21 5.448 21 6c0 .513-.409.936-.935.993L19.94 7H4.06C3.474 7 3 6.552 3 6c0-.513.409-.936.935-.993L4.06 5H14c0-1.105-.895-2-2-2z"/>
    </g>
</svg>
