<svg xmlns="http://www.w3.org/2000/svg" width="24" height="24" viewBox="0 0 24 24">
    <g fill="none" fill-rule="evenodd">
        <path d="M0 0.7H24V24.7H0z"/>
        <path fill="#003E78" fill-rule="nonzero" d="M3.5 5.5c.276.001.5.225.5.5v8.5h16.001L20 10c0-.245.177-.45.41-.492l.09-.008h2c.276 0 .5.225.5.5v10c0 .276-.224.5-.5.5h-1.997c-.277 0-.5-.224-.5-.5L20 17.5H4V20c0 .245-.177.45-.41.492l-.09.008H1.503c-.277 0-.5-.224-.5-.5L1 6c0-.276.224-.5.5-.5zm-.5 1H2l.002 13H3v-13zm19 4h-1l.002 9H22v-9zm-1.999 5H4v1h16.001v-1z"/>
    </g>
</svg>
