<svg xmlns="http://www.w3.org/2000/svg" width="24" height="24" viewBox="0 0 24 24">
  <path fill="#005EB8" d="M12.102 8c-3.502 0-6.194 3.563-6.31 3.739-.176.232-.176.46 0 .692.116.176 2.808 3.739 6.31 3.739 3.5 0 6.193-3.563 6.31-3.739.175-.232.175-.46 0-.692-.117-.176-2.81-3.739-6.31-3.739zm0 1.167c1.634 0 2.917 1.284 2.917 2.918 0 1.634-1.283 2.918-2.917 2.918-1.635 0-2.918-1.284-2.918-2.918 0-1.634 1.283-2.918 2.918-2.918zM7.397 6.8l4.088 3.963c.187-.088.396-.137.617-.137.804 0 1.458.654 1.458 1.459 0 .204-.042.4-.118.576l3.997 3.876-.668.678-3.983-3.843c-.205.11-.438.172-.686.172-.805 0-1.46-.654-1.46-1.459 0-.23.054-.447.149-.64L6.7 7.496l.696-.697z"/>
</svg>
