<svg xmlns="http://www.w3.org/2000/svg" xmlns:xlink="http://www.w3.org/1999/xlink" width="24" height="24" viewBox="0 0 24 24">
  <defs>
    <path id="prefix__a" d="M7.003 0C3.5 0 .809 3.563.693 3.739c-.176.232-.176.46 0 .692.116.176 2.808 3.739 6.31 3.739 3.501 0 6.193-3.563 6.31-3.739.175-.232.175-.46 0-.692C13.196 3.563 10.504 0 7.003 0zm0 1.167c1.634 0 2.918 1.284 2.918 2.918 0 1.634-1.284 2.918-2.918 2.918-1.635 0-2.918-1.284-2.918-2.918 0-1.634 1.283-2.918 2.918-2.918zm0 1.46c-.805 0-1.46.653-1.46 1.458 0 .805.655 1.459 1.46 1.459.805 0 1.459-.654 1.459-1.459s-.654-1.459-1.46-1.459z"/>
  </defs>
  <g fill="none" fill-rule="evenodd" transform="translate(5 8)">
    <use fill="#005EB8" fill-rule="nonzero" xlink:href="#prefix__a"/>
  </g>
</svg>
