<svg xmlns="http://www.w3.org/2000/svg" width="16" height="16" viewBox="0 0 16 16">
    <g fill="none" fill-rule="evenodd">
        <g>
            <g>
                <g>
                    <g>
                        <path fill="#05874C" d="M8 .667C3.95.667.667 3.95.667 8c0 4.05 3.283 7.333 7.333 7.333 4.05 0 7.333-3.283 7.333-7.333C15.333 3.95 12.05.667 8 .667zm0 14c-3.676 0-6.667-2.991-6.667-6.667 0-3.676 2.991-6.667 6.667-6.667 3.676 0 6.667 2.991 6.667 6.667 0 3.676-2.991 6.667-6.667 6.667zM6.693 9.929L4.902 8.138l-.471.471 2.262 2.262 4.876-4.876-.472-.471-4.404 4.405z" transform="translate(-32 -594) translate(0 66) translate(16 344) translate(16 184)"/>
                    </g>
                </g>
            </g>
        </g>
    </g>
</svg>
