<svg xmlns="http://www.w3.org/2000/svg" width="24" height="26" viewBox="0 0 24 26">
    <g fill="none" fill-rule="evenodd">
        <path d="M0 0.5H24V24.5H0z" transform="translate(0 .5)"/>
        <path fill="#005EB8" fill-rule="nonzero" d="M23 21.5c.552 0 1 .448 1 1 0 .513-.386.936-.883.993L23 23.5H1c-.552 0-1-.448-1-1 0-.513.386-.936.883-.993L1 21.5h22zm0-10c.552 0 1 .448 1 1 0 .513-.386.936-.883.993L23 13.5H1c-.552 0-1-.448-1-1 0-.513.386-.936.883-.993L1 11.5h22zm0-10c.552 0 1 .448 1 1 0 .513-.386.936-.883.993L23 3.5H1c-.552 0-1-.448-1-1 0-.513.386-.936.883-.993L1 1.5h22z" transform="translate(0 .5)"/>
    </g>
</svg>
