<svg xmlns="http://www.w3.org/2000/svg" width="64" height="64" viewBox="0 0 64 64">
    <g fill="none" fill-rule="evenodd">
        <path d="M0 0H64V64H0z"/>
        <path fill="#003E78" fill-rule="nonzero" d="M46.933 2.667c.717 0 1.302.566 1.332 1.275l.002.058v18.133h9.066c.717 0 1.302.566 1.332 1.276l.002.058v35.199H60c.736 0 1.333.598 1.333 1.334 0 .717-.566 1.302-1.275 1.332l-.058.001H4c-.736 0-1.333-.597-1.333-1.333 0-.717.566-1.302 1.275-1.332L4 58.667l1.336-.001-.003-35.2c0-.716.566-1.301 1.276-1.331l.058-.002h9.066V4c0-.717.566-1.302 1.276-1.332l.058-.001h29.866zM15.745 24.8H8l.003 33.866h7.987l-.044-6.133H12c-.737 0-1.334-.597-1.334-1.333v-5.867c0-.736.597-1.333 1.334-1.333h3.884l-.04-5.334H12c-.737 0-1.334-.596-1.334-1.333v-5.866c0-.737.597-1.334 1.334-1.334h3.784l-.04-5.333zM45.6 5.333H18.4V23.19l.256 35.476h2.677V45.333c0-.717.566-1.301 1.276-1.332l.058-.001h18.666c.717 0 1.302.566 1.332 1.275l.002.058v13.333h3.19l-.255-35.126v-.015l-.002-.058V5.333zM40 46.667H24v11.999h16v-12zM56 24.8h-7.722l.039 5.333H52c.693 0 1.263.53 1.327 1.205l.006.129v5.866c0 .737-.597 1.334-1.333 1.334l-3.622-.001.039 5.334H52c.717 0 1.302.566 1.332 1.275l.001.058V51.2c0 .717-.566 1.302-1.275 1.332l-.058.001h-3.521l.044 6.133H56V24.8zm-5.333 21.867l-2.231-.001.023 3.2h2.208v-3.2zm-35.2 0h-2.134v3.2h2.134v-3.2zm23.2-15.2c.736 0 1.333.597 1.333 1.333v5.867c0 .736-.597 1.333-1.333 1.333H25.333C24.597 40 24 39.403 24 38.667V32.8c0-.736.597-1.333 1.333-1.333zm-1.334 2.666H26.667v3.2h10.666v-3.2zM50.666 32.8h-2.133V36h2.133v-3.2zm-35.2 0h-2.133V36h2.134v-3.2z"/>
        <path fill="#2C98FF" fill-rule="nonzero" d="M29.333 12.8l-.058.001c-.71.03-1.275.615-1.275 1.332V16.8h-2.667c-.736 0-1.333.597-1.333 1.333v5.334l.001.058c.03.71.615 1.275 1.332 1.275H28v2.667c0 .736.597 1.333 1.333 1.333h5.334l.058-.001c.71-.03 1.275-.615 1.275-1.332V24.8h2.667c.736 0 1.333-.597 1.333-1.333v-5.334l-.001-.058c-.03-.71-.615-1.275-1.332-1.275H36v-2.667c0-.736-.597-1.333-1.333-1.333h-5.334zm4 2.667v2.666l.002.058c.03.71.615 1.276 1.332 1.276h2.666v2.666h-2.666l-.058.002c-.71.03-1.276.615-1.276 1.332v2.666h-2.666v-2.666l-.002-.058c-.03-.71-.615-1.276-1.332-1.276h-2.666v-2.666h2.666l.058-.002c.71-.03 1.276-.615 1.276-1.332v-2.666h2.666z"/>
    </g>
</svg>
