<svg xmlns="http://www.w3.org/2000/svg" width="24" height="24" viewBox="0 0 24 24">
    <g fill="none" fill-rule="evenodd">
        <path d="M0 0H24V24H0z"/>
        <path fill="#005EB8" fill-rule="nonzero" d="M12 1c.552 0 1 .448 1 1 0 .513-.386.936-.883.993L12 3H3v18h9c.513 0 .936.386.993.883L13 22c0 .513-.386.936-.883.993L12 23H2c-.513 0-.936-.386-.993-.883L1 22V2c0-.513.386-.936.883-.993L2 1h10zm5.522 6.147l.103.072 4.99 3.993.05.042.018.016-.058-.05.082.074.047.049.016.019.016.02c.014.016.026.033.038.051l.03.047.03.05.022.046c.01.02.019.042.027.063l.016.045.017.058c.006.021.011.043.015.064l.007.04c.004.023.007.046.009.07l.002.052v.015L23 12l-.004.077.002-.02-.001.02c-.002.026-.005.052-.009.077l-.007.04-.014.062-.019.063-.014.039-.028.066-.023.046c-.008.017-.018.033-.028.05l-.031.047c-.012.018-.024.035-.038.052l-.032.038-.036.04c-.036.035-.068.064-.102.091l-4.991 3.993c-.432.345-1.06.275-1.406-.156-.318-.398-.283-.965.063-1.321l.093-.085L19.148 13H7c-.552 0-1-.448-1-1 0-.513.386-.936.883-.993L7 11h12.149l-2.774-2.22c-.398-.318-.488-.878-.228-1.302l.072-.103c.319-.398.88-.488 1.303-.228z"/>
    </g>
</svg>
