<svg xmlns="http://www.w3.org/2000/svg" width="22" height="16" viewBox="0 0 22 16">
    <g fill="none" fill-rule="evenodd">
        <path d="M0 0H24V24H0z" transform="translate(-1 -4.3)"/>
        <path fill="#FFF" fill-rule="nonzero" d="M3.5 4.8c.246.001.45.178.492.411l.008.09V13.8h16.001L20 9.3c0-.245.177-.45.41-.492l.09-.008h2c.246 0 .45.178.492.41L23 9.3v10c0 .245-.177.45-.41.492l-.09.008h-1.997c-.246 0-.45-.177-.492-.41l-.008-.09L20 16.8H4v2.5c0 .245-.177.45-.41.492l-.09.008H1.503c-.246 0-.45-.177-.492-.41l-.008-.09L1 5.3c0-.245.177-.45.41-.492L1.5 4.8h2zm-.5 1H2l.002 13H3v-13zm19 4h-1l.002 9H22v-9zm-1.999 5H4v1h16.001v-1zm-3.477-7.1c1.525 0 2.401.761 2.471 2.126l.005.182V12.3c0 .245-.193.45-.448.492l-.099.008h-8.306c-.269 0-.492-.177-.538-.41L9.6 12.3V8.2c0-.245.193-.45.448-.492l.099-.008h6.377zM6.8 7.7c.994 0 1.8.806 1.8 1.8s-.806 1.8-1.8 1.8S5 10.494 5 9.5s.806-1.8 1.8-1.8z" transform="translate(-1 -4.3)"/>
    </g>
</svg>
