<svg xmlns="http://www.w3.org/2000/svg" width="18" height="18" viewBox="0 0 18 18">
    <g fill="none" fill-rule="evenodd">
        <path d="M0 0H20V20H0z" transform="translate(-1 -1)"/>
        <path fill="#FFF" d="M15.833 4.167h-2.5v2.5h2.5v-2.5zM15 5.833h-.833V5H15v.833zm-13.333 12.5h7.5v-7.5h-7.5v7.5zm.833-6.666h5.833V17.5H2.5v-5.833zm1.667 4.166h2.5v-2.5h-2.5v2.5zM5 14.167h.833V15H5v-.833zm8.333-3.334h-2.5v2.5h2.5v-2.5zM12.5 12.5h-.833v-.833h.833v.833zm2.5-1.667h-.833v3.334h-3.334V15h3.334v3.333H15V15h3.333v-.833H15v-3.334zm.833 2.5h2.5v-2.5h-2.5v2.5zm.834-1.666h.833v.833h-.833v-.833zm-.834 6.666h2.5v-2.5h-2.5v2.5zm.834-1.666h.833v.833h-.833v-.833zm-5.834-15v7.5h7.5v-7.5h-7.5zM17.5 8.333h-5.833V2.5H17.5v5.833zM4.167 6.667h2.5v-2.5h-2.5v2.5zM5 5h.833v.833H5V5zM1.667 9.167h7.5v-7.5h-7.5v7.5zM2.5 2.5h5.833v5.833H2.5V2.5zm8.333 15.833h2.5v-2.5h-2.5v2.5zm.834-1.666h.833v.833h-.833v-.833z" transform="translate(-1 -1)"/>
    </g>
</svg>
