<svg xmlns="http://www.w3.org/2000/svg" width="24" height="24" viewBox="0 0 24 24">
    <g fill="none" fill-rule="evenodd">
        <g>
            <g>
                <g>
                    <path fill="#E30A0A" fill-rule="nonzero" d="M12 1c6.075 0 11 4.925 11 11s-4.925 11-11 11S1 18.075 1 12 5.925 1 12 1zm0 1C6.477 2 2 6.477 2 12s4.477 10 10 10 10-4.477 10-10S17.523 2 12 2zm4.146 5.146l.707.708L12.707 12l4.146 4.146-.707.707L12 12.707l-4.146 4.146-.707-.707L11.293 12 7.146 7.854l.708-.708L12 11.293l4.146-4.147z" transform="translate(-602 -980) translate(123 970) translate(479 10)"/>
                </g>
            </g>
        </g>
    </g>
</svg>
