<svg xmlns="http://www.w3.org/2000/svg" width="24" height="24" viewBox="0 0 24 24">
    <g fill="none" fill-rule="evenodd">
        <g>
            <g>
                <g>
                    <g>
                        <path d="M0 0H24V24H0z" transform="translate(-408 -346) translate(0 66) translate(392 264) translate(16 16)"/>
                        <g fill-rule="nonzero">
                            <path fill="#003E78" d="M3.993-.155c2.294-1.043 4.673.401 5.67 2.868.913 2.256.81 4.48-.084 6.422-.17.369-.368.721-.584 1.049l-.066.097c-.23.339-.481.648-.74.92l-.075.076c-.483.49-.992.843-1.456.998-.936.312-2.28.178-3.231-.365-1.215-.695-1.682-1.939-1.094-3.487.098-.258.386-.388.644-.29.259.098.389.387.29.645-.41 1.082-.137 1.81.656 2.263.705.403 1.753.507 2.419.285.707-.236 1.722-1.29 2.329-2.61.782-1.698.871-3.635.066-5.628C7.93 1.093 6.104-.016 4.407.756c-1.2.545-1.58 1.524-1.153 3.11l.027.097c.076.266-.078.542-.344.618-.265.076-.542-.078-.618-.343-.597-2.09-.035-3.616 1.674-4.393z" transform="translate(-408 -346) translate(0 66) translate(392 264) translate(16 16) translate(12.7 3.5)"/>
                            <path fill="#2C98FF" d="M7.491 3.84c.09.105.076.263-.03.352-1.27 1.07-2.45 1.75-3.54 2.036l-.06.015c-.198.05-.386.118-.565.204 1.655-.433 3.042-.133 4.142.908.08.076.083.203.007.283-.076.08-.202.084-.282.008-.98-.929-2.211-1.206-3.713-.825.796.18 1.454.7 1.964 1.55.071.12.033.273-.085.344-.119.07-.272.033-.343-.086C4.429 7.701 3.708 7.25 2.8 7.25c-.5 0-.854.285-1.055.886l-.02.063-.045.165-.03.136c0 .029-.005.056-.013.08-.011.05-.02.102-.027.156l-.011.08-.01.084-.008.086-.004.043-.007.09-.006.09-.005.094-.004.096-.002.049-.002.1V17.5c0 .139-.113.25-.25.25-.133 0-.242-.103-.25-.233V9.7c0-.153.003-.301.01-.443l.006-.106c.008-.121.02-.239.033-.352l.012-.095c.012-.085.025-.167.04-.247L1.15 8.5c0-.395.252-.977.655-1.48.477-.597 1.12-1.045 1.88-1.248l.054-.014c1.026-.256 2.16-.905 3.4-1.949.106-.089.263-.075.352.03zm-1.54-.54c.11.083.132.24.05.35-.627.835-1.648 1.456-3.059 1.87l-.073.02C1.329 5.982.557 7.256.55 9.435V17.5c0 .139-.112.25-.25.25-.132 0-.24-.103-.25-.233V9.429C.057 7.509.64 6.174 1.8 5.464c-.354-.151-.606-.45-.738-.892-.04-.132.035-.271.167-.311.132-.04.272.035.312.168.16.535.532.736 1.206.627l-.015.004c1.352-.386 2.306-.958 2.87-1.71.082-.11.239-.132.35-.05z" transform="translate(-408 -346) translate(0 66) translate(392 264) translate(16 16) translate(12.7 3.5)"/>
                        </g>
                        <g fill-rule="nonzero">
                            <path fill="#003E78" d="M3.993-.155c2.294-1.043 4.673.401 5.67 2.868.913 2.256.81 4.48-.084 6.422-.17.369-.368.721-.584 1.049l-.066.097c-.23.339-.481.648-.74.92l-.075.076c-.483.49-.992.843-1.456.998-.936.312-2.28.178-3.231-.365-1.215-.695-1.682-1.939-1.094-3.487.098-.258.386-.388.644-.29.259.098.389.387.29.645-.41 1.082-.137 1.81.656 2.263.705.403 1.753.507 2.419.285.707-.236 1.722-1.29 2.329-2.61.782-1.698.871-3.635.066-5.628C7.93 1.093 6.104-.016 4.407.756c-1.2.545-1.58 1.524-1.153 3.11l.027.097c.076.266-.078.542-.344.618-.265.076-.542-.078-.618-.343-.597-2.09-.035-3.616 1.674-4.393z" transform="translate(-408 -346) translate(0 66) translate(392 264) translate(16 16) matrix(-1 0 0 1 11.3 3.5)"/>
                            <path fill="#2C98FF" d="M7.491 3.84c.09.105.076.263-.03.352-1.27 1.07-2.45 1.75-3.54 2.036l-.06.015c-.198.05-.386.118-.565.204 1.655-.433 3.042-.133 4.142.908.08.076.083.203.007.283-.076.08-.202.084-.282.008-.98-.929-2.211-1.206-3.713-.825.796.18 1.454.7 1.964 1.55.071.12.033.273-.085.344-.119.07-.272.033-.343-.086C4.429 7.701 3.708 7.25 2.8 7.25c-.5 0-.854.285-1.055.886l-.02.063-.045.165-.03.136c0 .029-.005.056-.013.08-.011.05-.02.102-.027.156l-.011.08-.01.084-.008.086-.004.043-.007.09-.006.09-.005.094-.004.096-.002.049-.002.1V17.5c0 .139-.113.25-.25.25-.133 0-.242-.103-.25-.233V9.7c0-.153.003-.301.01-.443l.006-.106c.008-.121.02-.239.033-.352l.012-.095c.012-.085.025-.167.04-.247L1.15 8.5c0-.395.252-.977.655-1.48.477-.597 1.12-1.045 1.88-1.248l.054-.014c1.026-.256 2.16-.905 3.4-1.949.106-.089.263-.075.352.03zm-1.54-.54c.11.083.132.24.05.35-.627.835-1.648 1.456-3.059 1.87l-.073.02C1.329 5.982.557 7.256.55 9.435V17.5c0 .139-.112.25-.25.25-.132 0-.24-.103-.25-.233V9.429C.057 7.509.64 6.174 1.8 5.464c-.354-.151-.606-.45-.738-.892-.04-.132.035-.271.167-.311.132-.04.272.035.312.168.16.535.532.736 1.206.627l-.015.004c1.352-.386 2.306-.958 2.87-1.71.082-.11.239-.132.35-.05z" transform="translate(-408 -346) translate(0 66) translate(392 264) translate(16 16) matrix(-1 0 0 1 11.3 3.5)"/>
                        </g>
                    </g>
                </g>
            </g>
        </g>
    </g>
</svg>
