<svg xmlns="http://www.w3.org/2000/svg" width="24" height="24" viewBox="0 0 24 24">
    <g fill="none" fill-rule="evenodd">
        <g>
            <g>
                <g>
                    <g>
                        <path d="M0 0H24V24H0z" transform="translate(-33 -426) translate(0 66) translate(16 344) translate(17 16)"/>
                        <path fill="#2C98FF" fill-rule="nonzero" d="M10 15H6.5C4.187 15 3 16.583 3 19.5v3c0 .276.224.5.5.5h17c.276 0 .5-.224.5-.5v-3c0-2.917-1.188-4.5-3.5-4.5h-3.523c-.188.009-.357.123-.434.297L12 18.769l-1.543-3.472c-.08-.18-.26-.297-.457-.297z" transform="translate(-33 -426) translate(0 66) translate(16 344) translate(17 16)"/>
                        <path fill="#2C98FF" fill-rule="nonzero" d="M14.325 16H17.55c1.654.022 2.45 1.108 2.45 3.5V22H4v-2.572C4.016 17.062 4.83 16 6.5 16h3.175l1.868 4.203c.176.396.738.396.914 0L14.325 16z" transform="translate(-33 -426) translate(0 66) translate(16 344) translate(17 16)"/>
                        <path fill="#003E78" fill-rule="nonzero" d="M16.48 6.777c.34.685.52 1.442.52 2.223 0 2.761-2.239 5-5 5s-5-2.239-5-5c0-.756.168-1.489.488-2.156l.031-.064.896.444C8.143 7.771 8 8.374 8 9c0 2.21 1.79 4 4 4s4-1.79 4-4c0-.604-.134-1.189-.388-1.721l-.028-.057.896-.445z" transform="translate(-33 -426) translate(0 66) translate(16 344) translate(17 16)"/>
                        <path fill="#003E78" fill-rule="nonzero" d="M6.317 2.035c-.247.097-.375.37-.291.623l1.5 4.5c.082.248.342.39.595.327 2.587-.647 5.17-.647 7.758 0 .252.063.51-.078.594-.324l.698-2.05.266-.79.193-.577.135-.412.083-.262.042-.135.046-.155.02-.072.02-.075.012-.048.006-.03.004-.025.001-.013.001-.012V2.5c0-.214-.137-.405-.34-.474-4.04-1.37-7.829-1.37-11.343.009zm10.45.754l.112.034-.112.345-.31.926-.61 1.801-.174.514-.087-.02c-2.39-.519-4.782-.519-7.172 0l-.084.02-1.203-3.61.05-.017c2.981-1.044 6.173-1.044 9.59.007z" transform="translate(-33 -426) translate(0 66) translate(16 344) translate(17 16)"/>
                        <path fill="#2C98FF" fill-rule="nonzero" d="M12 2.5c.269 0 .488.212.5.478V3.5h.5c.276 0 .5.224.5.5 0 .269-.212.488-.478.5H12.5V5c0 .276-.224.5-.5.5-.269 0-.488-.212-.5-.478V4.5H11c-.276 0-.5-.224-.5-.5 0-.269.212-.488.478-.5h.522V3c0-.276.224-.5.5-.5z" transform="translate(-33 -426) translate(0 66) translate(16 344) translate(17 16)"/>
                    </g>
                </g>
            </g>
        </g>
    </g>
</svg>
