<svg xmlns="http://www.w3.org/2000/svg" width="20" height="20" viewBox="0 0 20 20">
    <g fill="none" fill-rule="evenodd">
        <circle cx="10" cy="10" r="9" fill="#FFF"/>
        <path fill="#05874C" d="M10 .833C4.937.833.833 4.938.833 10c0 5.063 4.104 9.167 9.167 9.167s9.167-4.105 9.167-9.167c0-5.063-4.105-9.167-9.167-9.167zm0 17.5c-4.595 0-8.333-3.738-8.333-8.333 0-4.595 3.738-8.333 8.333-8.333 4.595 0 8.333 3.738 8.333 8.333 0 4.595-3.738 8.333-8.333 8.333zm-1.634-5.922l-2.238-2.239-.59.59 2.828 2.827 6.095-6.095-.59-.589-5.505 5.506z"/>
    </g>
</svg>
