<svg xmlns="http://www.w3.org/2000/svg" width="20" height="20" viewBox="0 0 20 20">
    <g fill="none" fill-rule="evenodd">
        <circle cx="10" cy="10" r="9" fill="#FFF"/>
        <path stroke="#B60000" d="M10 1.333c-2.393 0-4.56.97-6.128 2.539C2.303 5.44 1.333 7.607 1.333 10c0 2.393.97 4.56 2.539 6.128C5.44 17.697 7.607 18.667 10 18.667c2.393 0 4.56-.97 6.128-2.539 1.569-1.568 2.539-3.735 2.539-6.128 0-2.393-.97-4.56-2.539-6.128C14.56 2.303 12.393 1.333 10 1.333z"/>
        <path fill="#B60000" d="M13.455 5.955L10 9.411 6.545 5.955 5.955 6.545 9.411 10 5.956 13.455 6.545 14.044 10 10.589 13.455 14.044 14.044 13.455 10.589 10 14.044 6.545z"/>
    </g>
</svg>
