<svg xmlns="http://www.w3.org/2000/svg" width="22" height="23" viewBox="0 0 22 23">
    <g fill="none" fill-rule="evenodd">
        <path d="M0 0H24V24H0z" transform="translate(-1 -1)"/>
        <path fill="#2C98FF" fill-rule="nonzero" d="M11.6 13.9c.276 0 .5.224.5.5s-.224.5-.5.5-.5-.224-.5-.5.224-.5.5-.5zm3 0c.276 0 .5.224.5.5s-.224.5-.5.5-.5-.224-.5-.5.224-.5.5-.5zm3 0c.276 0 .5.224.5.5s-.224.5-.5.5-.5-.224-.5-.5.224-.5.5-.5zm-6-1.6c.276 0 .5.224.5.5s-.224.5-.5.5-.5-.224-.5-.5.224-.5.5-.5zm3 0c.276 0 .5.224.5.5s-.224.5-.5.5-.5-.224-.5-.5.224-.5.5-.5zm3 0c.276 0 .5.224.5.5s-.224.5-.5.5-.5-.224-.5-.5.224-.5.5-.5zM6.15 9.8c.138 0 .25.224.25.5 0 .265-.103.482-.234.499l-.016.001h-3.4c-.138 0-.25-.224-.25-.5 0-.265.103-.482.234-.499L2.75 9.8h3.4zM3.25 8c.038 0 .075.009.11.025l.016.01 1.074.626 1.074-.627c.033-.02.07-.03.107-.033L6.15 8c.138 0 .25.112.25.25 0 .133-.103.241-.234.25h-.449l-1.141.666c-.072.042-.16.045-.235.009l-.017-.01L3.183 8.5H2.75c-.133 0-.241-.103-.25-.234V8.25c0-.133.103-.241.234-.25h.516zm11.124-3.48l.012.013.825.917H17.2c.133 0 .241.103.25.234V5.7c0 .133-.103.241-.234.25H15.1c-.064 0-.126-.025-.172-.069l-.014-.014-.703-.78-.616.77c-.07.086-.188.116-.29.074l-.017-.007-.722-.361-.614.131c-.13.028-.257-.05-.293-.176l-.003-.016c-.028-.13.05-.257.176-.293l.016-.004.7-.15c.048-.01.099-.006.144.013l.02.008.619.31.674-.842c.092-.116.264-.125.369-.024z" transform="translate(-1 -1)"/>
        <path fill="#003E78" fill-rule="nonzero" d="M19.2 1.3c.276 0 .5.224.5.5v7c0 .276-.224.5-.5.5h-1.501v1H19.6c.245 0 .45.177.492.41l.008.09v.5h2.4c.245 0 .45.177.492.41l.008.09v8c0 .276-.224.5-.5.5h-2.4v.5c0 .245-.177.45-.41.492l-.09.008h-.5v.5c0 .828-.672 1.5-1.5 1.5-.818 0-1.483-.655-1.5-1.469V21.3h-3v.5c0 .828-.672 1.5-1.5 1.5-.818 0-1.483-.655-1.5-1.469V21.3h-.5c-.245 0-.45-.177-.492-.41L9.1 20.8v-4.5H1.5c-.245 0-.45-.177-.492-.41L1 15.8v-2c0-.276.224-.5.5-.5H2v-1h-.5c-.245 0-.45-.177-.492-.41L1 11.8v-5c0-.276.224-.5.5-.5h6.1c.276 0 .5.224.5.5v5c0 .276-.224.5-.5.5h-.4v1h1.9v-2.5c0-.245.177-.45.41-.492l.09-.008h1.8v-1H9.9c-.245 0-.45-.177-.492-.41L9.4 8.8v-7c0-.276.224-.5.5-.5zm-7.1 20h-1v.5c0 .276.224.5.5.5.269 0 .488-.212.5-.478V21.3zm6 0h-1v.5c0 .276.224.5.5.5.269 0 .488-.212.5-.478V21.3zm1-10h-9v9h9v-9zm2.9 1h-1.9v7H22v-1h-.5c-.276 0-.5-.224-.5-.5 0-.269.212-.488.478-.5H22v-1h-.5c-.276 0-.5-.224-.5-.5 0-.269.212-.488.478-.5H22v-1h-.5c-.276 0-.5-.224-.5-.5 0-.269.212-.488.478-.5H22v-1zm-4.4 3.6c.276 0 .5.224.5.5v2.4c0 .276-.224.5-.5.5h-6.1c-.276 0-.5-.224-.5-.5v-2.4c0-.276.224-.5.5-.5zm-.5 1H12v1.4h5.1v-1.4zm-8-2.6H2v1h7.1v-1zm-2.9-2H3v1h3.2v-1zm.9-5H2v4h5.1v-4zm9.599 2H12.4v1h4.299v-1zm2.001-7h-8.3v6h8.3v-6zm-1.5 1c.276 0 .5.224.5.5v3c0 .276-.224.5-.5.5h-5.3c-.276 0-.5-.224-.5-.5v-3c0-.276.224-.5.5-.5zm0 .5h-5.3v3h5.3v-3z" transform="translate(-1 -1)"/>
    </g>
</svg>
